<svg xmlns="http://www.w3.org/2000/svg" viewBox="0 0 22.578 22.578" height="64pt" width="64pt"><g style="display:inline;stroke-width:.79487"><g style="stroke-width:.79487"><path d="M70.023 249.936c-4.068.179-7.386 2.738-8.085 6.652a8.205 8.205 0 0 0 5.246 9.14 8.205 8.205 0 0 0 9.916-3.57c.112-.192-.05-.352-.27-.318-2.477.388-4.364.165-5.736-.445-1.373-.61-2.24-1.676-2.701-2.88-.922-2.406-.159-5.705 1.837-8.26.136-.172.013-.318-.207-.32z" style="color:#000;font-style:normal;font-variant:normal;font-weight:400;font-stretch:normal;font-size:medium;line-height:normal;font-family:sans-serif;font-variant-ligatures:normal;font-variant-position:normal;font-variant-caps:normal;font-variant-numeric:normal;font-variant-alternates:normal;font-variant-east-asian:normal;font-feature-settings:normal;font-variation-settings:normal;text-indent:0;text-align:start;text-decoration:none;text-decoration-line:none;text-decoration-style:solid;text-decoration-color:#000;letter-spacing:normal;word-spacing:normal;text-transform:none;writing-mode:lr-tb;direction:ltr;text-orientation:mixed;dominant-baseline:auto;baseline-shift:baseline;text-anchor:start;white-space:normal;shape-padding:0;shape-margin:0;inline-size:0;clip-rule:nonzero;display:inline;overflow:visible;visibility:visible;isolation:auto;mix-blend-mode:normal;color-interpolation:sRGB;color-interpolation-filters:linearRGB;solid-color:#000;solid-opacity:1;vector-effect:none;fill:#aabfd0;fill-opacity:1;fill-rule:nonzero;stroke:none;stroke-width:.420619;stroke-linecap:round;stroke-linejoin:round;stroke-miterlimit:4;stroke-dasharray:none;stroke-dashoffset:0;stroke-opacity:1;color-rendering:auto;image-rendering:auto;shape-rendering:auto;text-rendering:auto;enable-background:accumulate;stop-color:#000" transform="matrix(1.25807 0 0 1.25807 -76.12 -313.36)"/><path style="fill:#7d8e9e;fill-opacity:1;stroke:none;stroke-width:.420619;stroke-linecap:round;stroke-linejoin:round;stroke-opacity:1" d="M70.024 249.997c-.223 0-.443-.067-.662-.05-7.542 8.61 1.606 15.835 7.38 12.77.125-.18.245-.366.358-.559.111-.192-.05-.352-.27-.317-2.477.387-4.364.087-5.736-.523-1.372-.61-2.24-1.6-2.701-2.802-.922-2.407-.159-5.706 1.837-8.26.136-.173.014-.258-.206-.259z" transform="matrix(1.25807 0 0 1.25807 -76.12 -313.36)"/><path style="color:#000;font-style:normal;font-variant:normal;font-weight:400;font-stretch:normal;font-size:medium;line-height:normal;font-family:sans-serif;font-variant-ligatures:normal;font-variant-position:normal;font-variant-caps:normal;font-variant-numeric:normal;font-variant-alternates:normal;font-variant-east-asian:normal;font-feature-settings:normal;font-variation-settings:normal;text-indent:0;text-align:start;text-decoration:none;text-decoration-line:none;text-decoration-style:solid;text-decoration-color:#000;letter-spacing:normal;word-spacing:normal;text-transform:none;writing-mode:lr-tb;direction:ltr;text-orientation:mixed;dominant-baseline:auto;baseline-shift:baseline;text-anchor:start;white-space:normal;shape-padding:0;shape-margin:0;inline-size:0;clip-rule:nonzero;display:inline;overflow:visible;visibility:visible;isolation:auto;mix-blend-mode:normal;color-interpolation:sRGB;color-interpolation-filters:linearRGB;solid-color:#000;solid-opacity:1;vector-effect:none;fill:#5b6571;fill-opacity:1;fill-rule:nonzero;stroke:none;stroke-width:.420619;stroke-linecap:round;stroke-linejoin:round;stroke-miterlimit:4;stroke-dasharray:none;stroke-dashoffset:0;stroke-opacity:1;color-rendering:auto;image-rendering:auto;shape-rendering:auto;text-rendering:auto;enable-background:accumulate;stop-color:#000" d="M64.049 260.654a1.797 1.797 0 0 0-1.373.691l-.114.113a8.223 8.223 0 0 0 2.04 2.734l.138-.07a1.804 1.804 0 0 0 1.115-1.667 1.805 1.805 0 0 0-1.806-1.8zM71.31 261.424l-.05.312-.002.016a1.84 1.84 0 0 0-.01.189c0 .972.715 1.8 1.707 1.8.88 0 1.712-.589 1.861-1.46a.247.247 0 0 0 .004-.04l.006-.28c-1.41.035-2.578-.162-3.516-.537zM62.263 255.346a8.183 8.183 0 0 0-.405 3.56l.24.02a1.804 1.804 0 0 0 2.169-1.762c0-.992-.808-1.803-1.8-1.803h.018zM65.64 252.969c-.851 0-1.546.697-1.546 1.549a1.55 1.55 0 0 0 1.547 1.546c.851 0 1.548-.695 1.548-1.546 0-.852-.697-1.55-1.548-1.55zM67.568 262.713c-.449 0-.82.37-.82.818 0 .45.371.819.82.819.45 0 .819-.37.819-.819a.822.822 0 0 0-.819-.818zM65.873 257.084a.822.822 0 0 0-.818.818c0 .45.37.819.818.819.449 0 .818-.37.818-.819a.822.822 0 0 0-.818-.818zM70.244 262.842a.822.822 0 0 0-.818.818c0 .45.37.819.818.819.45 0 .82-.37.82-.819a.824.824 0 0 0-.82-.818z" transform="matrix(1.25807 0 0 1.25807 -76.12 -313.36)"/><path style="color:#000;font-style:normal;font-variant:normal;font-weight:400;font-stretch:normal;font-size:medium;line-height:normal;font-family:sans-serif;font-variant-ligatures:normal;font-variant-position:normal;font-variant-caps:normal;font-variant-numeric:normal;font-variant-alternates:normal;font-variant-east-asian:normal;font-feature-settings:normal;font-variation-settings:normal;text-indent:0;text-align:start;text-decoration:none;text-decoration-line:none;text-decoration-style:solid;text-decoration-color:#000;letter-spacing:normal;word-spacing:normal;text-transform:none;writing-mode:lr-tb;direction:ltr;text-orientation:mixed;dominant-baseline:auto;baseline-shift:baseline;text-anchor:start;white-space:normal;shape-padding:0;shape-margin:0;inline-size:0;clip-rule:nonzero;display:inline;overflow:visible;visibility:visible;isolation:auto;mix-blend-mode:normal;color-interpolation:sRGB;color-interpolation-filters:linearRGB;solid-color:#000;solid-opacity:1;vector-effect:none;fill:#fef79c;fill-opacity:1;fill-rule:nonzero;stroke:none;stroke-width:.420619;stroke-linecap:round;stroke-linejoin:round;stroke-miterlimit:4;stroke-dasharray:none;stroke-dashoffset:0;stroke-opacity:1;color-rendering:auto;image-rendering:auto;shape-rendering:auto;text-rendering:auto;enable-background:accumulate;stop-color:#000" d="M71.786 252.552a.252.252 0 0 0-.19.118l-.5.793-.939.037a.252.252 0 0 0-.184.414l.6.722-.256.905a.252.252 0 0 0 .337.304l.872-.348.782.52a.252.252 0 0 0 .39-.226l-.06-.937.737-.583a.252.252 0 0 0-.093-.441l-.91-.233-.327-.88a.252.252 0 0 0-.259-.164zM73.491 256.798a.252.252 0 0 0-.234.177l-.278.897-.897.28a.252.252 0 0 0-.07.446l.766.542-.01.94a.252.252 0 0 0 .401.205l.752-.563.89.302a.252.252 0 0 0 .32-.32l-.301-.888.56-.754a.252.252 0 0 0-.205-.402l-.938.011-.543-.767a.252.252 0 0 0-.213-.106z" transform="matrix(1.25807 0 0 1.25807 -76.12 -313.36)"/><path d="m71.013 253.466-.856.034a.252.252 0 0 0-.184.414l.6.722-.256.905a.252.252 0 0 0 .337.304l.872-.348.782.521a.252.252 0 0 0 .01.007c.034-.823-.37-1.82-1.305-2.558zM72.987 257.848l-.008.024-.897.28a.252.252 0 0 0-.07.446l.766.542-.01.94a.252.252 0 0 0 .401.205l.752-.562.729.246c-.137-.674-.632-1.41-1.663-2.122z" style="fill:#fed883;fill-opacity:1;stroke-width:.420619;stroke-linecap:round;stroke-linejoin:round" transform="matrix(1.25807 0 0 1.25807 -76.12 -313.36)"/></g><path style="color:#000;font-style:normal;font-variant:normal;font-weight:400;font-stretch:normal;font-size:medium;line-height:normal;font-family:sans-serif;font-variant-ligatures:normal;font-variant-position:normal;font-variant-caps:normal;font-variant-numeric:normal;font-variant-alternates:normal;font-variant-east-asian:normal;font-feature-settings:normal;font-variation-settings:normal;text-indent:0;text-align:start;text-decoration:none;text-decoration-line:none;text-decoration-style:solid;text-decoration-color:#000;letter-spacing:normal;word-spacing:normal;text-transform:none;writing-mode:lr-tb;direction:ltr;text-orientation:mixed;dominant-baseline:auto;baseline-shift:baseline;text-anchor:start;white-space:normal;shape-padding:0;shape-margin:0;inline-size:0;clip-rule:nonzero;display:inline;overflow:visible;visibility:visible;isolation:auto;mix-blend-mode:normal;color-interpolation:sRGB;color-interpolation-filters:linearRGB;solid-color:#000;solid-opacity:1;vector-effect:none;fill:#000;fill-opacity:1;fill-rule:nonzero;stroke:none;stroke-width:.420619;stroke-linecap:round;stroke-linejoin:round;stroke-miterlimit:4;stroke-dasharray:none;stroke-dashoffset:0;stroke-opacity:1;color-rendering:auto;image-rendering:auto;shape-rendering:auto;text-rendering:auto;enable-background:accumulate;stop-color:#000" d="M70.036 249.851a8.206 8.206 0 0 0-8.087 6.76 8.205 8.205 0 0 0 5.246 9.14 8.205 8.205 0 0 0 9.917-3.57.265.265 0 0 0-.27-.394c-2.477.387-4.364.164-5.736-.446-1.373-.61-2.24-1.6-2.701-2.802-.922-2.407-.16-5.706 1.837-8.26a.265.265 0 0 0-.206-.428zm-.534.623c-1.816 2.596-2.542 5.77-1.592 8.252.506 1.323 1.488 2.434 2.98 3.098.12.053.244.101.37.147.012.963.723 1.779 1.707 1.779.825 0 1.607-.519 1.825-1.301.48-.013.98-.049 1.503-.11-1.97 2.873-5.603 4.134-8.918 2.916a7.662 7.662 0 0 1-2.271-1.312c.46-.327.761-.86.761-1.465a1.806 1.806 0 0 0-1.806-1.8 1.77 1.77 0 0 0-1.088.402 7.658 7.658 0 0 1-.565-2.096c.024 0 .047.004.07.004.993 0 1.801-.81 1.801-1.8 0-.876-.63-1.609-1.459-1.77 1.032-2.799 3.647-4.73 6.682-4.944zm-2.564 1.524a.265.265 0 0 0-.266.265.265.265 0 0 0 .266.264.265.265 0 0 0 .264-.264.265.265 0 0 0-.264-.265zm4.898.49a.265.265 0 0 0-.033.002.265.265 0 0 0-.2.123l-.525.832-.984.039a.265.265 0 0 0-.193.434l.629.757-.268.95a.265.265 0 0 0 .353.318l.915-.365.82.547a.265.265 0 0 0 .41-.239l-.065-.982.774-.611a.265.265 0 0 0-.098-.463l-.955-.245-.342-.923a.265.265 0 0 0-.238-.173zm-6.184.504c-.851 0-1.546.697-1.546 1.549a1.55 1.55 0 0 0 1.546 1.547c.852 0 1.55-.695 1.55-1.547s-.698-1.55-1.55-1.55zm6.112.357.205.551a.265.265 0 0 0 .182.164l.57.145-.46.365a.265.265 0 0 0-.103.224l.04.588-.489-.326a.265.265 0 0 0-.246-.025l-.547.218.16-.568a.265.265 0 0 0-.05-.24l-.378-.453.589-.024a.265.265 0 0 0 .214-.123zm-6.112.172c.566 0 1.02.454 1.02 1.02 0 .566-.454 1.017-1.02 1.017a1.013 1.013 0 0 1-1.017-1.017c0-.566.452-1.02 1.017-1.02zm-2.999 2.41c.622.085 1.097.61 1.097 1.256a1.266 1.266 0 0 1-1.388 1.265 7.69 7.69 0 0 1 .291-2.52zm10.841.803a.265.265 0 0 0-.246.186l-.29.941-.942.293a.265.265 0 0 0-.075.469l.805.568-.011.986a.265.265 0 0 0 .421.215l.79-.59.933.317a.265.265 0 0 0 .336-.336l-.316-.932.587-.791a.265.265 0 0 0-.214-.422l-.985.012-.57-.805a.265.265 0 0 0-.223-.111zm-7.61.373a.822.822 0 0 0-.817.818c0 .45.369.819.818.819.449 0 .818-.37.818-.819a.822.822 0 0 0-.818-.818zm7.71.482.34.48a.265.265 0 0 0 .22.112l.588-.008-.351.473a.265.265 0 0 0-.04.242l.19.559-.556-.19a.265.265 0 0 0-.245.038l-.47.351.008-.588a.265.265 0 0 0-.112-.218l-.48-.343.56-.173a.265.265 0 0 0 .174-.174zm-7.71.047c.164 0 .29.126.29.29 0 .162-.126.288-.29.288a.285.285 0 0 1-.288-.289c0-.163.126-.289.289-.289zm1.583 2.828a.265.265 0 0 0-.265.264.265.265 0 0 0 .265.266.265.265 0 0 0 .264-.266.265.265 0 0 0-.264-.264zm-3.399.743a1.27 1.27 0 0 1 .633 2.372 7.681 7.681 0 0 1-1.493-2c.231-.23.535-.366.86-.372zm7.737.933c.713.194 1.522.298 2.42.31-.204.45-.716.77-1.258.77-.642 0-1.086-.453-1.162-1.08zm-4.225.596c-.449 0-.82.37-.82.818 0 .45.371.819.82.819.45 0 .818-.37.818-.819a.822.822 0 0 0-.818-.818zm2.676.129a.822.822 0 0 0-.818.818c0 .449.37.818.818.818.45 0 .82-.37.82-.818a.824.824 0 0 0-.82-.818zm-2.676.4c.163 0 .29.126.29.29a.285.285 0 0 1-.29.288.286.286 0 0 1-.29-.289c0-.163.127-.289.29-.289zm2.676.129c.163 0 .291.126.291.289 0 .163-.128.29-.29.29a.286.286 0 0 1-.29-.29c0-.163.126-.289.29-.289z" transform="matrix(1.25807 0 0 1.25807 -76.12 -313.36)"/></g></svg>