<svg version="1.0" xmlns="http://www.w3.org/2000/svg" width="110" height="110" style="enable-background:new 0 0 110 110" xml:space="preserve"><path style="fill:#fa0" d="M59 34 27 46v25l24 12 32-12V46z"/><path style="fill:#e07000" d="M83 71 51 83V58l32-12z"/><path style="fill:#fa9200" d="m27 71 24 12V58L27 46z"/><path style="fill:#e07000" d="M59 48v4c0 1.1-2.69 2-6 2s-6-.9-6-2v-4c0 1.1 2.69 2 6 2s6-.9 6-2z"/><path style="fill:#ffe9a1" d="M53 46c-3.31 0-6 .9-6 2s2.69 2 6 2 6-.9 6-2-2.69-2-6-2z"/><path style="fill:#e07000" d="M47 42v4c0 1.1-2.69 2-6 2s-6-.9-6-2v-4c0 1.1 2.69 2 6 2s6-.9 6-2z"/><path style="fill:#ffe9a1" d="M41 40c-3.31 0-6 .9-6 2s2.69 2 6 2 6-.9 6-2-2.69-2-6-2z"/><path style="fill:#e07000" d="M63 36v4c0 1.1-2.69 2-6 2s-6-.9-6-2v-4c0 1.1 2.69 2 6 2s6-.9 6-2z"/><path style="fill:#ffe9a1" d="M57 34c-3.31 0-6 .9-6 2s2.69 2 6 2 6-.9 6-2-2.69-2-6-2z"/><path style="fill:#e07000" d="M75 42v4c0 1.1-2.69 2-6 2s-6-.9-6-2v-4c0 1.1 2.69 2 6 2s6-.9 6-2z"/><path style="fill:#ffe9a1" d="M69 40c-3.31 0-6 .9-6 2s2.69 2 6 2 6-.9 6-2-2.69-2-6-2z"/></svg>