<svg xmlns="http://www.w3.org/2000/svg" viewBox="0 0 22.578 22.578" height="64pt" width="64pt"><g style="display:inline"><path style="color:#000;font-style:normal;font-variant:normal;font-weight:400;font-stretch:normal;font-size:medium;line-height:normal;font-family:sans-serif;font-variant-ligatures:normal;font-variant-position:normal;font-variant-caps:normal;font-variant-numeric:normal;font-variant-alternates:normal;font-variant-east-asian:normal;font-feature-settings:normal;font-variation-settings:normal;text-indent:0;text-align:start;text-decoration:none;text-decoration-line:none;text-decoration-style:solid;text-decoration-color:#000;letter-spacing:normal;word-spacing:normal;text-transform:none;writing-mode:lr-tb;direction:ltr;text-orientation:mixed;dominant-baseline:auto;baseline-shift:baseline;text-anchor:start;white-space:normal;shape-padding:0;shape-margin:0;inline-size:0;clip-rule:nonzero;display:inline;overflow:visible;visibility:visible;isolation:auto;mix-blend-mode:normal;color-interpolation:sRGB;color-interpolation-filters:linearRGB;solid-color:#000;solid-opacity:1;vector-effect:none;fill:#febe40;fill-opacity:1;fill-rule:nonzero;stroke:none;stroke-width:.529167;stroke-linecap:round;stroke-linejoin:round;stroke-miterlimit:4;stroke-dasharray:none;stroke-dashoffset:0;stroke-opacity:1;color-rendering:auto;image-rendering:auto;shape-rendering:auto;text-rendering:auto;enable-background:accumulate;stop-color:#000" d="M38.559 253.572c-2.472.005-4.479 2.015-4.479 4.46 0 2.443 2.007 4.45 4.479 4.456a4.49 4.49 0 0 0 3.812-2.1.265.265 0 0 0 .04-.115l.362-3.709a.265.265 0 0 0-.015-.12 4.493 4.493 0 0 0-4.2-2.872z" transform="translate(-41.785 -340.12) scale(1.36189)"/><path style="color:#000;font-style:normal;font-variant:normal;font-weight:400;font-stretch:normal;font-size:medium;line-height:normal;font-family:sans-serif;font-variant-ligatures:normal;font-variant-position:normal;font-variant-caps:normal;font-variant-numeric:normal;font-variant-alternates:normal;font-variant-east-asian:normal;font-feature-settings:normal;font-variation-settings:normal;text-indent:0;text-align:start;text-decoration:none;text-decoration-line:none;text-decoration-style:solid;text-decoration-color:#000;letter-spacing:normal;word-spacing:normal;text-transform:none;writing-mode:lr-tb;direction:ltr;text-orientation:mixed;dominant-baseline:auto;baseline-shift:baseline;text-anchor:start;white-space:normal;shape-padding:0;shape-margin:0;inline-size:0;clip-rule:nonzero;display:inline;overflow:visible;visibility:visible;isolation:auto;mix-blend-mode:normal;color-interpolation:sRGB;color-interpolation-filters:linearRGB;solid-color:#000;solid-opacity:1;vector-effect:none;fill:#eda824;fill-opacity:1;fill-rule:nonzero;stroke:none;stroke-width:2.24707;stroke-linecap:round;stroke-linejoin:round;stroke-miterlimit:4;stroke-dasharray:none;stroke-dashoffset:0;stroke-opacity:1;color-rendering:auto;image-rendering:auto;shape-rendering:auto;text-rendering:auto;enable-background:accumulate;stop-color:#000" d="M40.773 255.561a2.034 2.034 0 0 0-2.025 2.025c0 .065.026.118.032.18l-.004.003c-.382.275-.693.72-.852 1.3a.6.6 0 0 0-.004.019.883.883 0 0 0-.017.094c0 .004-.09.561.215 1.124.32.591 1.052 1.042 2.067 1.05-.033-.001.577.015 1.345.016.325-.286.61-.615.841-.983a.265.265 0 0 0 .04-.115l.363-3.71a.265.265 0 0 0-.016-.12 4.459 4.459 0 0 0-.442-.852 3.168 3.168 0 0 0-.461.331c-.319-.208-.675-.361-1.082-.361z" transform="translate(-41.785 -340.12) scale(1.36189)"/><path style="color:#000;font-style:normal;font-variant:normal;font-weight:400;font-stretch:normal;font-size:medium;line-height:normal;font-family:sans-serif;font-variant-ligatures:normal;font-variant-position:normal;font-variant-caps:normal;font-variant-numeric:normal;font-variant-alternates:normal;font-variant-east-asian:normal;font-feature-settings:normal;font-variation-settings:normal;text-indent:0;text-align:start;text-decoration:none;text-decoration-line:none;text-decoration-style:solid;text-decoration-color:#000;letter-spacing:normal;word-spacing:normal;text-transform:none;writing-mode:lr-tb;direction:ltr;text-orientation:mixed;dominant-baseline:auto;baseline-shift:baseline;text-anchor:start;white-space:normal;shape-padding:0;shape-margin:0;inline-size:0;clip-rule:nonzero;display:inline;overflow:visible;visibility:visible;isolation:auto;mix-blend-mode:normal;color-interpolation:sRGB;color-interpolation-filters:linearRGB;solid-color:#000;solid-opacity:1;vector-effect:none;fill:#d0e2ee;fill-opacity:1;fill-rule:nonzero;stroke:none;stroke-width:.529167;stroke-linecap:round;stroke-linejoin:round;stroke-miterlimit:4;stroke-dasharray:none;stroke-dashoffset:0;stroke-opacity:1;color-rendering:auto;image-rendering:auto;shape-rendering:auto;text-rendering:auto;enable-background:accumulate;stop-color:#000" d="M43.112 256.14c-.575 0-1.083.29-1.39.734a1.27 1.27 0 0 0-.982-.468c-.698 0-1.27.572-1.27 1.27 0 .157.033.308.086.448-.092.035-.095.135-.188.202-.234.168-.444.45-.557.865a.274.274 0 0 0-.006.034s-.142.28.04.617c.183.336.617.65 1.376.656.007 0 .863.035 1.941.012 1.07-.023 2.34-.102 3.246-.338.01 0 .395-.023.729-.291a1.08 1.08 0 0 0 .383-.623c.058-.278.023-.614-.131-1.014a.264.264 0 0 0-.01-.023s-.151-.314-.48-.537a1.241 1.241 0 0 0-.64-.205 1.479 1.479 0 0 0-.484.065 1.693 1.693 0 0 0-1.663-1.403z" transform="translate(-41.785 -340.12) scale(1.36189)"/><path style="color:#000;font-style:normal;font-variant:normal;font-weight:400;font-stretch:normal;font-size:medium;line-height:normal;font-family:sans-serif;font-variant-ligatures:normal;font-variant-position:normal;font-variant-caps:normal;font-variant-numeric:normal;font-variant-alternates:normal;font-variant-east-asian:normal;font-feature-settings:normal;font-variation-settings:normal;text-indent:0;text-align:start;text-decoration:none;text-decoration-line:none;text-decoration-style:solid;text-decoration-color:#000;letter-spacing:normal;word-spacing:normal;text-transform:none;writing-mode:lr-tb;direction:ltr;text-orientation:mixed;dominant-baseline:auto;baseline-shift:baseline;text-anchor:start;white-space:normal;shape-padding:0;shape-margin:0;inline-size:0;clip-rule:nonzero;display:inline;overflow:visible;visibility:visible;opacity:1;isolation:auto;mix-blend-mode:normal;color-interpolation:sRGB;color-interpolation-filters:linearRGB;solid-color:#000;solid-opacity:1;vector-effect:none;fill:#000;fill-opacity:1;fill-rule:nonzero;stroke:none;stroke-width:.529167;stroke-linecap:round;stroke-linejoin:round;stroke-miterlimit:4;stroke-dasharray:none;stroke-dashoffset:0;stroke-opacity:1;color-rendering:auto;image-rendering:auto;shape-rendering:auto;text-rendering:auto;enable-background:accumulate;stop-color:#000;stop-opacity:1" d="M38.568 250.926a.265.265 0 0 0-.265.265v1.588a.265.265 0 0 0 .53 0v-1.588a.265.265 0 0 0-.265-.265zm1.919.782-.02.001a.264.264 0 0 0-.238.196l-.206.765a.265.265 0 0 0 .512.137l.205-.766a.265.265 0 0 0-.253-.333zm-3.844.001a.265.265 0 0 0-.256.331l.205.768a.265.265 0 1 0 .512-.136l-.205-.768a.265.265 0 0 0-.256-.195zm-2.072.268a.268.268 0 0 0-.12.035.265.265 0 0 0-.098.361l.795 1.375c.073.127.235.17.362.098a.265.265 0 0 0 .096-.362l-.794-1.375a.265.265 0 0 0-.241-.131zm7.96.033a.264.264 0 0 0-.217.13l-.793 1.376a.265.265 0 0 0 .457.265l.796-1.375a.265.265 0 0 0-.243-.396zm-3.973 1.562c-2.472.005-4.478 2.016-4.478 4.46 0 2.443 2.006 4.451 4.478 4.456a4.489 4.489 0 0 0 3.735-1.983c1.043-.026 2.244-.107 3.115-.333.01 0 .395-.023.729-.291.169-.136.324-.345.383-.623.064-.39.017-.706-.14-1.038 0 0-.152-.314-.482-.536a1.24 1.24 0 0 0-.638-.206 1.467 1.467 0 0 0-.485.067 1.693 1.693 0 0 0-1.663-1.404c-.158 0-.311.023-.457.064a4.492 4.492 0 0 0-4.097-2.633zm-5.257.06a.264.264 0 0 0-.18.08.265.265 0 0 0 0 .374l.563.56a.265.265 0 0 0 .373-.375l-.56-.56a.264.264 0 0 0-.196-.078zm10.518 0a.264.264 0 0 0-.18.08l-.561.56a.265.265 0 0 0 .373.375l.563-.561a.265.265 0 0 0 0-.375.264.264 0 0 0-.195-.078zm-5.26.47a3.962 3.962 0 0 1 3.615 2.324c-.178.12-.332.272-.454.448a1.264 1.264 0 0 0-.98-.468c-.698 0-1.27.572-1.27 1.27 0 .158.032.31.086.45-.426.11-.737.662-.837 1.01-.029.296.013.487.127.706.182.337.616.65 1.375.656.005 0 .599.022 1.405.017a3.957 3.957 0 0 1-3.068 1.444c-2.186-.005-3.949-1.773-3.949-3.928 0-2.154 1.763-3.925 3.95-3.93zm-6.915.777a.265.265 0 0 0-.118.494l1.374.793a.265.265 0 1 0 .264-.457l-1.373-.795a.264.264 0 0 0-.147-.035zm8.58 5.09c-.629-.006-.819-.205-.913-.38-.188-.38.084-.833.363-.943a.824.824 0 0 1 .427-.08.265.265 0 1 0 .047-.527c-.015 0-.037 0-.054-.002a.733.733 0 0 1-.094-.361c0-.412.328-.74.74-.74.35 0 .636.24.715.562a1.688 1.688 0 0 0-.033.332.265.265 0 0 0 .529 0c0-.644.516-1.16 1.16-1.16.645 0 1.16.516 1.16 1.16 0 .361-.163.68-.42.893a.265.265 0 1 0 .339.408c.305-.254.518-.616.586-1.026.407-.193.642-.106.825.018.196.133.29.317.295.326.12.322.137.551.106.702a.517.517 0 0 1-.198.318 1 1 0 0 1-.447.18c-1.086.22-2.217.308-3.207.332a35.64 35.64 0 0 1-1.926-.012zm-8.27-2.215a.265.265 0 1 0 0 .529h.776a.265.265 0 1 0 0-.53zm1.067 2.105a.267.267 0 0 0-.12.036l-1.376.792a.265.265 0 0 0 .266.46l1.373-.793a.265.265 0 0 0-.143-.495zm.855 1.479h-.014a.264.264 0 0 0-.178.076l-.563.563a.265.265 0 0 0 .375.373l.56-.56a.265.265 0 0 0-.18-.452zm9.395 0h-.015a.264.264 0 0 0-.178.451l.56.56a.265.265 0 0 0 .376-.372l-.563-.563a.265.265 0 0 0-.18-.076zm-1.526.81a.264.264 0 0 0-.224.397l.793 1.375a.265.265 0 1 0 .46-.264l-.796-1.375a.264.264 0 0 0-.21-.132l-.023-.001zm-6.382.032a.264.264 0 0 0-.215.133l-.795 1.374a.265.265 0 1 0 .46.264l.793-1.375a.265.265 0 0 0-.243-.396zm3.205.838a.265.265 0 0 0-.265.265v1.586a.265.265 0 1 0 .53 0v-1.586a.265.265 0 0 0-.265-.265zm-1.718.038a.265.265 0 0 0-.258.196l-.205.768a.265.265 0 1 0 .512.136l.205-.767a.265.265 0 0 0-.254-.333zm3.43 0a.265.265 0 0 0-.256.334l.205.766a.265.265 0 1 0 .511-.136l-.205-.766a.265.265 0 0 0-.256-.197z" transform="translate(-41.785 -340.12) scale(1.36189)"/></g></svg>